<mxfile host="app.diagrams.net" modified="2024-04-22T07:42:41.118Z" agent="Mozilla/5.0 (Windows NT 10.0; Win64; x64) AppleWebKit/537.36 (KHTML, like Gecko) Chrome/114.0.0.0 Safari/537.36" version="24.2.7" etag="m3YVeEhtw9UJa0Z5fzmD" type="github">
  <diagram name="第 1 页" id="YZdEXqjC2wMazX5hZITn">
    <mxGraphModel>
      <root>
        <mxCell id="0" />
        <mxCell id="1" parent="0" />
      </root>
    </mxGraphModel>
  </diagram>
</mxfile>
